<?xml version="1.0" encoding="UTF-8"?>
<svg width="15px" height="14px" viewBox="0 0 15 14" version="1.1" xmlns="http://www.w3.org/2000/svg" xmlns:xlink="http://www.w3.org/1999/xlink">
    <!-- Generator: Sketch 59.1 (86144) - https://sketch.com -->
    <title>rili</title>
    <desc>Created with Sketch.</desc>
    <g id="hcp360-墨克" stroke="none" stroke-width="1" fill="none" fill-rule="evenodd" fill-opacity="0.6">
        <g id="拜访登记" transform="translate(-315.000000, -269.000000)" fill="#252A36" fill-rule="nonzero">
            <g id="rili" transform="translate(315.000000, 269.000000)">
                <path d="M6.96303944,8.61552222 L8.03381483,8.61552222 C8.33375192,8.61552222 8.56995237,8.37830343 8.56995237,8.07730777 C8.56919316,7.93161459 8.51192636,7.79237103 8.41106337,7.69097099 C8.31020038,7.58957095 8.1742324,7.53455086 8.03381483,7.53831556 L6.96303944,7.53831556 C6.66310235,7.53831556 6.4269019,7.77553435 6.4269019,8.07730777 C6.4269019,8.37830342 6.66310235,8.61552222 6.96303944,8.61552222 Z M6.96303944,10.7699355 L8.03381483,10.7699355 C8.33375192,10.7699355 8.56995237,10.5327168 8.56995237,10.2309433 C8.56899255,10.0853855 8.51163769,9.94634331 8.41079703,9.84511202 C8.30995638,9.74388073 8.17410317,9.68896636 8.03381483,9.69272888 L6.96303944,9.69272888 C6.66310235,9.69272888 6.4269019,9.92916991 6.4269019,10.2309433 C6.4269019,10.5327167 6.66310235,10.7691578 6.96303944,10.7691578 L6.96303944,10.7699355 Z M12.8545536,1.07740888 L10.712253,1.07740888 L10.712253,0.538416662 C10.7112976,0.392720278 10.6538399,0.253555938 10.5528351,0.152301476 C10.4518303,0.0510470136 10.3157821,-0.00377287754 10.1753656,0.000202220703 C9.87542854,0.000202220703 9.63997793,0.23742101 9.63997793,0.538416662 L9.63997793,1.07740888 L5.3561265,1.07740888 L5.3561265,0.538416662 C5.35516254,0.392997132 5.2979105,0.254076872 5.19723388,0.152868693 C5.09655725,0.0516605132 4.96089892,-0.00334811776 4.8207388,0.000202220703 C4.52080172,0.000202220703 4.28460127,0.23742101 4.28460127,0.538416662 L4.28460127,1.07740888 L2.14230063,1.07740888 C0.964297724,1.07740888 0,2.04572823 0,3.23104444 L0,11.8455867 C0,13.0309029 0.964297724,14.0000002 2.14230063,14.0000002 L12.8545536,14.0000002 C14.0325565,14.0000002 14.9968543,13.0309029 14.9968543,11.8455867 L14.9968543,3.23182221 C14.9968543,2.04728377 14.0325565,1.07740888 12.8545536,1.07740888 Z M13.9245792,11.8455867 C13.9245792,12.437467 13.4431802,12.9220156 12.8538038,12.9220156 L2.14230063,12.9220156 C1.55292426,12.9220156 1.07152524,12.437467 1.07152524,11.8455867 L1.07152524,5.38468 L13.9245792,5.38468 L13.9245792,11.8463644 L13.9245792,11.8455867 Z M13.9245792,4.30669557 L1.07227508,4.30669557 L1.07227508,3.23104444 C1.07227508,2.63838634 1.5536741,2.15383778 2.14305047,2.15383778 L4.28535111,2.15383778 L4.28535111,2.69282999 C4.28535111,2.99382564 4.52155156,3.23104443 4.82148865,3.23104444 C5.12142573,3.23104444 5.35687634,2.99382565 5.35687634,2.69282999 L5.35687634,2.15383778 L9.64147761,2.15383778 L9.64147761,2.69282999 C9.64147761,2.99382564 9.87692822,3.23104443 10.1768653,3.23104444 C10.4768024,3.23104444 10.7130028,2.99382565 10.7130028,2.69282999 L10.7130028,2.15383778 L12.8553035,2.15383778 C13.4446799,2.15383778 13.9260789,2.63838634 13.9260789,3.23104444 L13.9260789,4.30747334 L13.9245792,4.30669557 Z M3.74921357,10.7691578 L4.8207388,10.7691578 C5.12067589,10.7691578 5.3561265,10.5327168 5.3561265,10.2309433 C5.35516254,10.0855238 5.2979105,9.94660353 5.19723388,9.84539535 C5.09655725,9.74418718 4.96089892,9.68917854 4.8207388,9.69272888 L3.74921357,9.69272888 C3.44927648,9.69272888 3.21382587,9.92916991 3.21382587,10.2309433 C3.21382587,10.5327167 3.44927648,10.7691578 3.74921357,10.7691578 L3.74921357,10.7691578 Z M10.1761155,8.61474446 L11.2476407,8.61474446 C11.5475778,8.61474446 11.7830284,8.37830343 11.7830284,8.07730777 C11.7822649,7.93175292 11.7251008,7.79263139 11.6244019,7.69125453 C11.523703,7.58987766 11.38793,7.53476323 11.2476407,7.53831556 L10.1761155,7.53831556 C9.87617838,7.53831556 9.64072777,7.77553435 9.64072777,8.07730777 C9.64072777,8.37830342 9.87617838,8.61552222 10.1761155,8.61552222 L10.1761155,8.61474446 Z M3.74921357,8.61474446 L4.8207388,8.61474446 C5.12067589,8.61474446 5.3561265,8.37830343 5.3561265,8.07730777 C5.35536295,7.93175292 5.29819892,7.79263139 5.19750001,7.69125453 C5.09680111,7.58987766 4.96102813,7.53476323 4.8207388,7.53831556 L3.74921357,7.53831556 C3.44927648,7.53831556 3.21382587,7.77553435 3.21382587,8.07730777 C3.21382587,8.37830342 3.44927648,8.61552222 3.74921357,8.61552222 L3.74921357,8.61474446 Z M10.1761155,10.7691578 L11.2476407,10.7691578 C11.5475778,10.7691578 11.7830284,10.5327168 11.7830284,10.2309433 C11.7820644,10.0855238 11.7248124,9.94660353 11.6241358,9.84539535 C11.5234592,9.74418718 11.3878008,9.68917854 11.2476407,9.69272888 L10.1761155,9.69272888 C9.87617838,9.69272888 9.64072777,9.92916991 9.64072777,10.2309433 C9.64072777,10.5327167 9.87617838,10.7691578 10.1761155,10.7691578 L10.1761155,10.7691578 Z" id="Shape"></path>
            </g>
        </g>
    </g>
</svg>