<?xml version="1.0" encoding="UTF-8"?>
<svg width="20px" height="20px" viewBox="0 0 20 20" version="1.1" xmlns="http://www.w3.org/2000/svg" xmlns:xlink="http://www.w3.org/1999/xlink">
    <!-- Generator: Sketch 59.1 (86144) - https://sketch.com -->
    <title>icon_net@2x</title>
    <desc>Created with Sketch.</desc>
    <defs>
        <linearGradient x1="31.1582692%" y1="21.8991869%" x2="83.2906577%" y2="89.9970197%" id="linearGradient-1">
            <stop stop-color="#F18924" offset="0%"></stop>
            <stop stop-color="#F1A255" offset="100%"></stop>
        </linearGradient>
    </defs>
    <g id="hcp360-墨克" stroke="none" stroke-width="1" fill="none" fill-rule="evenodd">
        <g id="拜访互动" transform="translate(-10.000000, -975.000000)">
            <g id="icon_net" transform="translate(10.000000, 975.000000)">
                <circle id="Oval-6" fill="url(#linearGradient-1)" cx="10" cy="10" r="10"></circle>
                <g id="shijianguannian" transform="translate(5.000000, 4.000000)" fill="#FFFFFF" fill-rule="nonzero">
                    <path d="M5.3745568,0 C7.89839647,0 9.97618204,2.16636934 9.97689458,4.87381799 C9.97689458,6.49842398 9.20449419,8.00947857 7.89839647,8.92131007 L7.89839647,8.92131007 L7.89839647,11.7142643 C7.9032317,11.7912458 7.87348286,11.8665278 7.81667764,11.9210608 C7.75987242,11.9755938 7.68145366,12.0041527 7.60126459,11.9995109 L7.60126459,11.9995109 L3.44498091,11.9995109 C3.36479184,12.0041527 3.28637308,11.9755938 3.22956786,11.9210608 C3.17276264,11.8665278 3.14301379,11.7912458 3.14784902,11.7142643 L3.14784902,11.7142643 L3.14784902,9.71890611 L1.66361469,9.71890611 C1.58342561,9.72354794 1.50500686,9.69498905 1.44820163,9.64045603 C1.39139641,9.58592302 1.36164757,9.51064101 1.3664828,9.4336595 L1.3664828,9.4336595 L1.3664828,7.41025548 L0.178667798,6.86849214 C0.114103141,6.8253635 0.062891694,6.76627337 0.0304581299,6.69748098 C0.000546281928,6.62426697 0.000546281928,6.54290812 0.0304581299,6.46969411 L0.0304581299,6.46969411 L0.772931567,4.93059369 L0.772931567,4.84508811 C0.772931567,2.16636934 2.85071714,0 5.3745568,0 Z M5.50801275,1 C4.12730722,1 3.00802424,2.11930596 3.00802424,3.50001149 C3.00802424,4.88071702 4.12730722,6 5.50801275,6 C6.88871828,6 8.00802424,4.88071702 8.00802424,3.50001149 C8.01085222,2.83610342 7.74837694,2.19856376 7.27891871,1.72910553 C6.80946048,1.25964731 6.17192082,0.997172024 5.50801275,1 Z" id="形状"></path>
                    <path d="M5.99996596,2 C7.10451666,2 7.99996633,2.89541526 7.99996633,3.99996596 C8.00305612,4.53134151 7.79334941,5.04185792 7.41760366,5.41760367 C7.05058521,5.78462212 6.55498393,5.99322499 6.03695693,5.99983782 L6,6 C6.53389463,6 6.97386309,5.56003154 7,5 C6.97386309,4.43996846 6.53389463,4 6,4 C5.46610537,4 5.02613691,4.43996846 5,5 C5.02557518,5.54799546 5.44738511,5.98103313 5.96571029,5.99939352 L5.99996595,5.99996633 C4.89541525,5.99996633 4,5.10451665 4,3.99996595 C4,2.89541525 4.89541527,2 5.99996596,2 Z" id="形状"></path>
                </g>
            </g>
        </g>
    </g>
</svg>