<?xml version="1.0" encoding="UTF-8"?>
<svg width="19px" height="13px" viewBox="0 0 19 13" version="1.1" xmlns="http://www.w3.org/2000/svg" xmlns:xlink="http://www.w3.org/1999/xlink">
    <!-- Generator: Sketch 59.1 (86144) - https://sketch.com -->
    <title>yanjing-5</title>
    <desc>Created with Sketch.</desc>
    <g id="hcp360-墨克" stroke="none" stroke-width="1" fill="none" fill-rule="evenodd">
        <g id="拜访互动-简历与擅长" transform="translate(-21.000000, -2227.000000)" fill="#A0A0A0" fill-rule="nonzero">
            <g id="yanjing-5" transform="translate(21.000000, 2227.000000)">
                <path d="M9.27137799,12.0527914 C7.21220493,12.0527914 5.28607617,11.4724031 3.72060399,10.4330817 C2.14307902,9.4174022 0.650387161,7.94232596 0.0361583741,6.18957195 C0.012708708,6.13622195 0.000404386574,6.07864404 4.03588274e-15,6.0203693 C4.03588274e-15,5.96010534 0.0120527914,5.9114306 0.0361583741,5.85116664 C0.650387161,4.11046542 2.14307902,2.64790555 3.72060399,1.61970973 C5.28607616,0.592441048 7.21266851,0 9.27137799,0 C11.3300875,0 13.2566798,0.580388257 14.822152,1.61970973 C16.3996769,2.63538919 17.8923688,4.11046542 18.5065976,5.86321943 C18.5307032,5.92348339 18.542756,5.97215813 18.542756,6.03242209 C18.542756,6.09268604 18.5307032,6.14136078 18.5065976,6.20162474 C17.8923688,7.95437875 16.3996769,9.4174022 14.822152,10.4451344 C13.2566798,11.4724031 11.3300875,12.0527914 9.27137799,12.0527914 Z M1.20997822,6.03242209 C1.7446729,7.45581621 3.33396097,8.89146217 4.62368142,9.71931704 C5.93691,10.5596174 7.54007217,11.037616 9.27137668,11.037616 C11.0026812,11.037616 12.6058434,10.5596174 13.9190719,9.71931704 C15.2087924,8.89146217 16.8592579,7.37069643 17.3934916,5.95928685 C16.8592579,4.53635366 15.4078809,3.15822465 14.1181604,2.33036978 C12.8049318,1.50205397 11.0026812,1.13843158 9.27137668,1.13843158 C7.54007217,1.13843158 5.80502942,1.50205397 4.49180084,2.33036978 C3.20208039,3.15822465 1.75573555,4.53635368 1.20997822,5.95928685 L1.20997822,6.03242209 Z M7.17465585,3.82583413 C7.73093854,3.23524735 8.47403948,2.89730562 9.27137799,2.89730562 C9.43457146,2.90136404 9.58913695,2.97145381 9.69971565,3.09154099 C9.80865434,3.20696964 9.8689183,3.36041095 9.8689183,3.5282229 C9.8689183,3.6964984 9.80865434,3.84993971 9.69971565,3.96536836 C9.59077695,4.08126059 9.43177282,4.15033236 9.27137799,4.15033236 C8.8105905,4.15033236 8.36788221,4.35152126 8.04013899,4.70012507 C7.70267039,5.05905919 7.51568701,5.53373483 7.51769684,6.02639569 C7.51769684,6.52519583 7.71007793,7.00220822 8.04013899,7.35266632 C8.37066362,7.70358798 8.80502767,7.90245903 9.27137799,7.90245902 C9.73216548,7.90245902 10.1748738,7.70127012 10.502617,7.35266632 C10.8400856,6.99373219 11.027069,6.51905655 11.0250591,6.02639569 C11.0250591,5.86461014 11.0871774,5.70282459 11.2039967,5.57951527 C11.319889,5.47150373 11.4631317,5.40428623 11.6225994,5.40428623 C11.7718686,5.40428623 11.9053765,5.4673316 12.0509371,5.58971378 C12.1594122,5.70514244 12.2284902,5.86646441 12.2284902,6.02639569 C12.2300965,6.84655835 11.9193038,7.63655183 11.3592923,8.23576507 C10.8104267,8.81893474 10.0668622,9.15548576 9.27137799,9.15548576 C8.47728447,9.15548576 7.73464709,8.82078902 7.17326514,8.23437436 C6.62010874,7.63218695 6.31350402,6.84408212 6.31427054,6.02639569 C6.31427054,5.19660736 6.63042597,4.40483168 7.17465585,3.82629769 L7.17465585,3.82583413 Z" id="Shape"></path>
            </g>
        </g>
    </g>
</svg>