<?xml version="1.0" encoding="UTF-8"?>
<svg width="20px" height="20px" viewBox="0 0 20 20" version="1.1" xmlns="http://www.w3.org/2000/svg" xmlns:xlink="http://www.w3.org/1999/xlink">
    <!-- Generator: Sketch 59.1 (86144) - https://sketch.com -->
    <title>icon_net@2x</title>
    <desc>Created with Sketch.</desc>
    <defs>
        <linearGradient x1="24.1467074%" y1="21.3685365%" x2="79.6290263%" y2="81.2715594%" id="linearGradient-1">
            <stop stop-color="#0C9DDD" offset="0%"></stop>
            <stop stop-color="#50B7E4" offset="100%"></stop>
        </linearGradient>
    </defs>
    <g id="hcp360-墨克" stroke="none" stroke-width="1" fill="none" fill-rule="evenodd">
        <g id="拜访互动" transform="translate(-10.000000, -294.000000)">
            <g id="icon_net" transform="translate(10.000000, 294.000000)">
                <circle id="Oval-6" fill="url(#linearGradient-1)" cx="10" cy="10" r="10"></circle>
                <g id="baifangjilu" transform="translate(5.000000, 5.000000)" fill="#FFFFFF" fill-rule="nonzero">
                    <path d="M8.74478555,2.17117942 L8.74478555,0.96010464 C8.74478555,0.432701103 8.38650112,0.00296490408 7.94153498,0.00296490408 L0.813408582,0.00296490408 C0.368442442,0.00296490408 0.0101580158,0.432701115 0.0101580158,0.96010464 L0.0101580158,2.17117942 L8.74478555,2.17117942 Z M5.09259594,7.48986265 C5.0957848,5.73404417 6.57134342,4.31273659 8.38939052,4.31427948 C8.51074492,4.31427948 8.63209933,4.31427948 8.75056434,4.33381295 L8.75056434,2.82973621 L0.0101580158,2.82973621 L0.0101580158,8.62559406 C0.0101580158,9.1529976 0.368442442,9.59668628 0.813408582,9.59668628 L5.91318284,9.59668628 C5.38106056,9.01555123 5.08897204,8.26562577 5.09259594,7.48986265 Z M4.03218961,7.8442555 L1.47796839,7.8442555 L1.47796839,7.18569872 L4.03218961,7.18569872 L4.03218961,7.8442555 Z M4.03218961,5.73185089 L1.47796839,5.73185089 L1.47796839,5.07329409 L4.03218961,5.07329409 L4.03218961,5.73185089 Z" id="Shape"></path>
                    <path d="M8.38939052,4.97283627 C6.95320084,4.97283627 5.78893906,6.09724867 5.78893906,7.48428165 C5.78893906,8.87131463 6.95320083,9.99572704 8.38939051,9.99572704 C9.8255802,9.99572704 10.989842,8.87131465 10.989842,7.48428167 C10.989842,6.81820494 10.7158666,6.17940897 10.2281874,5.7084216 C9.74050814,5.23743422 9.07907313,4.97283627 8.38939052,4.97283627 Z M10.0392325,7.81914106 L8.04266366,7.81914106 L8.04266366,5.89649008 L8.72455981,5.89649008 L8.72455981,7.16058426 L10.0334537,7.16058426 L10.0392325,7.81914106 Z" id="Shape"></path>
                </g>
            </g>
        </g>
    </g>
</svg>