<?xml version="1.0" encoding="UTF-8"?>
<svg width="20px" height="20px" viewBox="0 0 20 20" version="1.1" xmlns="http://www.w3.org/2000/svg" xmlns:xlink="http://www.w3.org/1999/xlink">
    <!-- Generator: Sketch 59.1 (86144) - https://sketch.com -->
    <title>icon_net@2x</title>
    <desc>Created with Sketch.</desc>
    <defs>
        <linearGradient x1="22.6583801%" y1="19.7616227%" x2="77.6801794%" y2="79.1674329%" id="linearGradient-1">
            <stop stop-color="#6AC033" offset="0%"></stop>
            <stop stop-color="#65D932" offset="100%"></stop>
        </linearGradient>
    </defs>
    <g id="hcp360-墨克" stroke="none" stroke-width="1" fill="none" fill-rule="evenodd">
        <g id="拜访互动" transform="translate(-10.000000, -392.000000)">
            <g id="icon_net" transform="translate(10.000000, 392.000000)">
                <circle id="Oval-6" fill="url(#linearGradient-1)" cx="10" cy="10" r="10"></circle>
                <g id="baifang" transform="translate(5.000000, 5.000000)" fill="#FFFFFF" fill-rule="nonzero">
                    <path d="M4.99770432,5.17401285 C3.56137742,5.17401285 2.39597796,4.01507805 2.39597796,2.58815427 C2.39597796,1.16064279 3.56137742,0.00229568182 4.99770432,0.00229568182 C6.43403122,0.00229568182 7.59943067,1.16064279 7.59943067,2.58815427 C7.59943067,4.01507805 6.43403122,5.17401285 4.99770432,5.17401285 Z M4.99770432,0.416033058 C6.20483012,0.416033058 7.18334252,1.38808081 7.18334252,2.58815427 C7.18334252,3.78764003 6.20483012,4.75968779 4.99770432,4.75968779 C3.79057851,4.75968779 2.81206612,3.78764004 2.81206612,2.58815427 C2.81206612,1.38808081 3.79057851,0.416033058 4.99770432,0.416033058 Z M9.99311294,9.99311294 L0.00229568182,9.99311294 L0.00229568182,9.78624426 C0.00229568182,7.05581267 2.25022957,4.82198347 4.99770432,4.82198347 C7.74517907,4.82198347 9.99311294,7.05581268 9.99311294,9.78624426 L9.99311294,9.99311294 Z M5.08115702,8.89706153 L6.10080808,8.11072543 L5.58069789,5.75289256 L4.51873278,5.75289256 L3.89460055,8.11072543 L5.08115702,8.89706153 L5.08115702,8.89706153 Z" id="Shape"></path>
                </g>
            </g>
        </g>
    </g>
</svg>