<?xml version="1.0" encoding="UTF-8"?>
<svg width="14px" height="14px" viewBox="0 0 14 14" version="1.1" xmlns="http://www.w3.org/2000/svg" xmlns:xlink="http://www.w3.org/1999/xlink">
    <!-- Generator: Sketch 59.1 (86144) - https://sketch.com -->
    <title>status-9</title>
    <desc>Created with Sketch.</desc>
    <g id="hcp360-墨克" stroke="none" stroke-width="1" fill="none" fill-rule="evenodd">
        <g id="拜访互动-简历与擅长" transform="translate(-110.000000, -2226.000000)" fill="#A0A0A0" fill-rule="nonzero">
            <g id="status-9" transform="translate(110.000000, 2226.000000)">
                <path d="M10.3772908,7.26177399 L6.67886269,7.26177399 L6.67886269,3.58307995 C6.67886269,3.3310405 6.50797259,3.12673776 6.25596388,3.12673776 C6.00401663,3.12673776 5.83311118,3.33105587 5.83311118,3.58307995 L5.83311118,7.67777203 C5.83311118,7.89509248 5.95153084,8.04328226 6.15494216,8.08923617 C6.19539389,8.10105507 6.23828932,8.10752551 6.28262945,8.10752551 L10.3773676,8.10752551 C10.6293917,8.10752551 10.8337098,7.93665078 10.8337098,7.68470354 C10.8336484,7.43264871 10.6293456,7.26177399 10.3773676,7.26177399 L10.3772908,7.26177399 L10.3772908,7.26177399 L10.3772908,7.26177399 Z M13.0629657,7.11424507 C13.0629657,10.62563 10.2163753,13.472205 6.70495958,13.472205 C3.19354387,13.472205 0.346953523,10.62563 0.346953523,7.11424507 C0.346953523,3.60279863 3.19352852,0.756223631 6.70495958,0.756223631 C10.2163753,0.756223631 13.0629657,3.60279863 13.0629657,7.11424507 Z M4.58596837,2.09730294 C3.93777008,2.37148596 3.35546464,2.76413087 2.85514732,3.26441854 C2.35481518,3.76475067 1.962111,4.34713022 1.68800209,4.99534334 C1.40434865,5.66592089 1.2604989,6.37881157 1.2604989,7.11424452 C1.2604989,7.84964785 1.40428937,8.56253851 1.68800209,9.23317534 C1.96218511,9.8814181 2.35480037,10.4636939 2.85514732,10.9640409 C3.35546464,11.4643434 3.93777008,11.8570327 4.58602765,12.1312009 C5.25663486,12.414884 5.96954035,12.5586448 6.70495847,12.5586448 C7.4403618,12.5586448 8.15322281,12.4148692 8.82388929,12.1312009 C9.47213205,11.8570327 10.0544079,11.4643434 10.5547103,10.9640409 C11.0550573,10.463768 11.4477467,9.88140329 11.7218556,9.23317534 C12.005509,8.56255332 12.1493588,7.84966265 12.1493588,7.11424452 C12.1493588,6.37882638 12.0055831,5.66593572 11.7218556,4.99534334 C11.4477467,4.34711539 11.0550721,3.76476549 10.5547103,3.26441854 C10.0544671,2.76417533 9.47211722,2.37142668 8.82388929,2.09730294 C8.15323765,1.81366432 7.44037663,1.66981456 6.70495849,1.66981456 C5.96954035,1.66981456 5.25664969,1.81366432 4.58596837,2.09730294 Z M12.9957715,2.20198858 C13.000244,2.26094483 12.992836,2.36188971 12.9294381,2.45176876 C12.8354554,2.58503506 12.6685767,2.64392982 12.5136245,2.59677713 C12.3585185,2.54957833 12.2524711,2.41070227 12.2500889,2.23584692 C12.2463695,1.95621975 12.1780381,1.69495878 12.0276658,1.45996376 C11.7339759,1.0009627 11.3100781,0.766382664 10.7661929,0.748247017 C10.4971859,0.739271403 10.3220846,0.497959658 10.4078755,0.252559682 C10.4611605,0.100127989 10.6011278,0.000151363065 10.7709266,0.00479286835 C11.6047363,0.0275700208 12.2437414,0.395032143 12.6830084,1.10269142 C12.882393,1.42369247 12.9787117,1.77895145 12.9957715,2.20198858 L12.9957715,2.20198858 L12.9957715,2.20198858 Z M0.00194579188,2.29385027 L0.00194579188,2.29385027 C0.0190056018,1.87081314 0.115324357,1.51555415 0.314693575,1.19455312 C0.753960574,0.486893828 1.39296566,0.119431721 2.22677531,0.0966545689 C2.3965742,0.0920130786 2.53654146,0.19198969 2.58982648,0.344421383 C2.67561733,0.589821343 2.50051608,0.831148468 2.23150902,0.840108717 C1.68762389,0.858259744 1.26372609,1.09282442 0.970036111,1.55182546 C0.81966389,1.7868051 0.751332447,2.04808145 0.747613103,2.32770862 C0.745246249,2.50256397 0.63919879,2.64144002 0.484077496,2.68863883 C0.329125258,2.73579152 0.162246517,2.6768814 0.0682638863,2.54363046 C0.00488131617,2.45375139 -0.00252664276,2.35280651 0.00194579188,2.29385027 L0.00194579188,2.29385027 Z" id="Shape"></path>
            </g>
        </g>
    </g>
</svg>