<?xml version="1.0" encoding="UTF-8"?>
<svg width="367px" height="204px" viewBox="0 0 367 204" version="1.1" xmlns="http://www.w3.org/2000/svg" xmlns:xlink="http://www.w3.org/1999/xlink">
    <!-- Generator: Sketch 59.1 (86144) - https://sketch.com -->
    <title>参加活动内容底</title>
    <desc>Created with Sketch.</desc>
    <defs>
        <path d="M6,12.0098959 C6,8.69072204 8.67850092,6 11.9942387,6 L355.005761,6 C358.316288,6 361,8.67752056 361,12.0098959 L361,191.990104 C361,195.309278 358.321499,198 355.005761,198 L11.9942387,198 C8.68371208,198 6,195.322479 6,191.990104 L6,12.0098959 Z" id="path-1"></path>
        <filter x="-2.5%" y="-4.7%" width="105.1%" height="109.4%" filterUnits="objectBoundingBox" id="filter-2">
            <feOffset dx="0" dy="0" in="SourceAlpha" result="shadowOffsetOuter1"></feOffset>
            <feGaussianBlur stdDeviation="3" in="shadowOffsetOuter1" result="shadowBlurOuter1"></feGaussianBlur>
            <feColorMatrix values="0 0 0 0 0   0 0 0 0 0   0 0 0 0 0  0 0 0 0.1 0" type="matrix" in="shadowBlurOuter1"></feColorMatrix>
        </filter>
    </defs>
    <g id="hcp360-墨克" stroke="none" stroke-width="1" fill="none" fill-rule="evenodd">
        <g id="拜访记录" transform="translate(-4.000000, -579.000000)">
            <g id="event-1" transform="translate(4.000000, 579.000000)">
                <g id="参加活动内容底">
                    <path d="M-1.18303967e-12,5.99485282 C-1.18101966e-12,2.68398703 2.6914781,-1.31061938e-16 6.00715208,-2.92519191e-16 L360.992848,-1.75786021e-14 C364.310506,-1.77401559e-14 367,2.69160899 367,5.99485282 L367,198.005147 C367,201.316013 364.308522,204 360.992848,204 L6.00715208,204 C2.6894936,204 -1.30220372e-12,201.308391 -1.30018836e-12,198.005147 L-1.18303967e-12,5.99485282 Z" id="base"></path>
                    <g id="base">
                        <use fill="black" fill-opacity="1" filter="url(#filter-2)" xlink:href="#path-1"></use>
                        <use fill="#FFFFFF" fill-rule="evenodd" xlink:href="#path-1"></use>
                    </g>
                </g>
            </g>
        </g>
    </g>
</svg>