<?xml version="1.0" standalone="no"?><!DOCTYPE svg PUBLIC "-//W3C//DTD SVG 1.1//EN" "http://www.w3.org/Graphics/SVG/1.1/DTD/svg11.dtd"><svg class="icon" width="32px" height="32.00px" viewBox="0 0 1024 1024" version="1.1" xmlns="http://www.w3.org/2000/svg"><path fill="rgba(0,159,218,1)" d="M512 48.853333a469.333333 469.333333 0 1 0 469.333333 469.333334 469.333333 469.333333 0 0 0-469.333333-469.333334z m0 896a426.666667 426.666667 0 1 1 426.666667-426.666666 426.666667 426.666667 0 0 1-426.666667 426.666666zM690.773333 488.32l-245.333333-141.44a34.346667 34.346667 0 0 0-51.626667 29.866667v282.88a34.346667 34.346667 0 0 0 51.626667 29.866666l245.12-141.653333a34.346667 34.346667 0 0 0 0.213333-59.52z" /></svg>