<?xml version="1.0" encoding="UTF-8"?>
<svg width="15px" height="15px" viewBox="0 0 15 15" version="1.1" xmlns="http://www.w3.org/2000/svg" xmlns:xlink="http://www.w3.org/1999/xlink">
    <!-- Generator: Sketch 59.1 (86144) - https://sketch.com -->
    <title>修改</title>
    <desc>Created with Sketch.</desc>
    <g id="hcp360-墨克" stroke="none" stroke-width="1" fill="none" fill-rule="evenodd">
        <g id="我的招募" transform="translate(-96.000000, -382.000000)" fill="#009FDA" fill-rule="nonzero">
            <g id="编组" transform="translate(48.000000, 360.000000)">
                <g id="修改" transform="translate(48.000000, 22.000000)">
                    <path d="M14.5446823,13.9631438 C14.5446823,14.2942475 14.2767893,14.5621405 13.9456856,14.5621405 L7.95511705,14.5621405 C7.62430032,14.5621405 7.35612038,14.2939605 7.35612038,13.9631438 C7.35612038,13.6323271 7.62430032,13.3641471 7.95511705,13.3641471 L13.9456856,13.3641471 C14.2767893,13.3641471 14.5446823,13.6326421 14.5446823,13.9631438 L14.5446823,13.9631438 Z M9.3800669,1.34508362 L13.6362542,5.60247491 L12.7850167,6.45311037 L8.52882943,2.19571906 L9.3800669,1.34508362 Z M2.19451506,8.53003345 L6.45070233,12.7874247 L5.6000669,13.6380602 L1.3438796,9.38066891 L2.19451506,8.53003345 Z" id="Shape"></path>
                    <path d="M2.19451506,10.2331104 L10.2571906,2.16983278 C10.9625451,1.46447836 12.1061506,1.46447837 12.811505,2.1698328 C13.5168594,2.87518723 13.5168594,4.01879271 12.811505,4.72414715 L4.74882943,12.7874247 L5.6000669,13.6386622 L13.6633445,5.57538462 C14.8388085,4.3998981 14.8388085,2.49408182 13.6633445,1.31859531 C12.487858,0.143131343 10.5820417,0.143131343 9.40655519,1.31859531 L1.34267558,9.3818729 L2.19451506,10.2331104 Z" id="Shape"></path>
                    <path d="M4.75846154,12.7904348 C4.75424749,12.7904348 2.11625417,13.3147826 2.11685618,13.3123746 C1.96214047,13.352709 1.83752509,13.3671572 1.73217392,13.261806 C1.63163881,13.1606689 1.67317727,12.8897659 1.67317724,12.8897659 L2.20474916,10.2355184 L1.35351171,9.38428094 L0.46856186,13.8078261 C0.46856186,13.8078261 0.39812707,14.2599331 0.566688957,14.427893 C0.740668882,14.6018729 0.950167221,14.5802007 1.20662209,14.5127759 C1.20541806,14.515786 5.60969901,13.6422743 5.60969901,13.6422742 L4.75846154,12.7904348 L4.75846154,12.7904348 Z" id="Shape"></path>
                    <path d="M4.75846154,12.7904348 C4.75424749,12.7904348 2.11625417,13.3147826 2.11685618,13.3123746 C1.96214047,13.352709 1.83752509,13.3671572 1.73217392,13.261806 C1.63163881,13.1606689 1.67317727,12.8897659 1.67317724,12.8897659 L2.20474916,10.2355184 L1.35351171,9.38428094 L0.46856186,13.8078261 C0.46856186,13.8078261 0.39812707,14.2599331 0.566688957,14.427893 C0.740668882,14.6018729 0.950167221,14.5802007 1.20662209,14.5127759 C1.20541806,14.515786 5.60969901,13.6422743 5.60969901,13.6422742 L4.75846154,12.7904348 L4.75846154,12.7904348 Z" id="Shape"></path>
                </g>
            </g>
        </g>
    </g>
</svg>