<?xml version="1.0" encoding="UTF-8"?>
<svg width="16px" height="16px" viewBox="0 0 16 16" version="1.1" xmlns="http://www.w3.org/2000/svg" xmlns:xlink="http://www.w3.org/1999/xlink">
    <!-- Generator: Sketch 59.1 (86144) - https://sketch.com -->
    <title>icon_ciose2@2x</title>
    <desc>Created with Sketch.</desc>
    <g id="hcp360-墨克" stroke="none" stroke-width="1" fill="none" fill-rule="evenodd">
        <g id="更多记录" transform="translate(-50.000000, -34.000000)" fill="#18181C" fill-rule="nonzero">
            <g id="top2">
                <g id="top">
                    <g>
                        <g id="icon_ciose2" transform="translate(50.000000, 34.000000)">
                            <path d="M9.24234886,7.9961128 L15.7480217,1.48338395 C16.0764117,1.15463774 16.0764117,0.612650759 15.7480217,0.283904555 L15.71252,0.248364425 C15.38413,-0.0803817787 14.8427302,-0.0803817787 14.5143402,0.248364425 L8.00866739,6.76997831 L1.50299458,0.248364425 C1.17460455,-0.0803817787 0.633204767,-0.0803817787 0.304814735,0.248364425 L0.269313109,0.283904555 C-0.0679523294,0.612650759 -0.0679523294,1.15463774 0.269313109,1.48338395 L6.77498592,7.9961128 L0.269313109,14.5088416 C-0.0590769231,14.8375879 -0.0590769231,15.3795748 0.269313109,15.708321 L0.304814735,15.7438612 C0.633204767,16.0726074 1.17460455,16.0726074 1.50299458,15.7438612 L8.00866739,9.23113232 L14.5143402,15.7438612 C14.8427302,16.0726074 15.38413,16.0726074 15.71252,15.7438612 L15.7480217,15.708321 C16.0764117,15.3795748 16.0764117,14.8375879 15.7480217,14.5088416 L9.24234886,7.9961128 Z" id="Shape"></path>
                        </g>
                    </g>
                </g>
            </g>
        </g>
    </g>
</svg>