<?xml version="1.0" encoding="UTF-8"?>
<svg width="14px" height="17px" viewBox="0 0 14 17" version="1.1" xmlns="http://www.w3.org/2000/svg" xmlns:xlink="http://www.w3.org/1999/xlink">
    <!-- Generator: Sketch 59.1 (86144) - https://sketch.com -->
    <title>yisheng</title>
    <desc>Created with Sketch.</desc>
    <g id="hcp-360标准版" stroke="none" stroke-width="1" fill="none" fill-rule="evenodd">
        <g id="医生列表" transform="translate(-56.000000, -627.000000)" fill-rule="nonzero">
            <g id="编组" transform="translate(0.000000, 617.000000)">
                <g id="yisheng" transform="translate(56.000000, 10.000000)">
                    <path d="M12.921356,16.9191993 C11.4241423,16.9105627 9.67739292,16.9191993 7.18203671,16.9191993 L7.18203671,16.0296243 C7.99948099,15.6064284 8.88576267,11.1326432 9.54832277,11.1498666 C12.1211211,11.6594789 13.9453125,13.0758896 13.9453125,15.7705247 C13.9194985,16.4787301 13.5753114,16.927836 12.921356,16.9191993 Z M10.7013494,7.91980898 C10.1334408,9.74214234 8.65343641,11.0462766 6.90668706,11.0462766 C5.15993772,11.0462766 3.67993335,9.74214234 3.11202469,7.91117233 C2.8538844,7.79025921 2.53551136,7.53115968 2.41504589,6.86613755 C2.3031851,6.22702538 2.56993007,5.9420159 2.72481425,5.83837608 C2.79365166,5.78655618 2.8883031,5.80382948 2.93993116,5.86428604 C3.02597793,5.62245981 3.18086211,5.40654353 3.37016499,5.23381051 C4.08435315,4.56015173 5.30621722,4.11104588 6.88947771,4.10240923 C8.3264587,4.09377258 9.50529939,4.34423546 10.4346045,5.21653721 C10.6153027,5.38063358 10.7787915,5.63973311 10.873443,5.90746929 C10.9336757,5.81246613 11.0627458,5.79519283 11.1487926,5.86428604 C11.3036768,5.98519915 11.5360031,6.27020863 11.4327469,6.86613755 C11.3122815,7.55706964 10.9680944,7.80753251 10.7013494,7.91980898 L10.7013494,7.91980898 Z" id="形状" fill="#009BD5"></path>
                    <path d="M6.84645433,1.77635684e-15 C5.04807692,1.77635684e-15 4.07574847,0.449105853 3.34435096,0.76866194 C2.93993116,0.950031611 2.68179087,1.33868091 2.68179087,1.76187681 L2.68179087,4.36150876 C2.68179087,4.51696848 2.86248907,4.60333499 2.99155922,4.50833183 C3.51644449,4.11968253 4.74691324,3.42875045 6.87226836,3.42875045 C9.04064685,3.42875045 10.2797203,4.15422914 10.7873962,4.54287843 C10.899257,4.62924494 11.0541412,4.55151508 11.0541412,4.41332867 L11.0541412,1.6927836 C11.0541412,1.3214076 10.8218149,0.984578215 10.4690232,0.837755148 C9.6859976,0.518199061 8.70506447,1.77635684e-15 6.84645433,1.77635684e-15 Z M8.03389969,1.76187681 C8.03389969,1.89142657 7.9220389,2.00370303 7.78436407,2.00370303 L7.1131993,2.00370303 L7.1131993,2.63417856 C7.1131993,2.76372832 7.00994318,2.87600479 6.88087303,2.88464144 C6.74319821,2.89327809 6.62273274,2.78100163 6.62273274,2.65145186 L6.62273274,2.00370303 L5.96017264,2.00370303 C5.82249781,2.00370303 5.71063702,1.90006322 5.71063702,1.76187681 C5.71063702,1.63232704 5.82249781,1.52005058 5.96017264,1.52005058 L6.62273274,1.52005058 L6.62273274,0.889575054 C6.62273274,0.760025289 6.72598885,0.647748826 6.855059,0.639112175 C6.99273383,0.630475524 7.1131993,0.742751987 7.1131993,0.872301752 L7.1131993,1.52005058 L7.78436407,1.52005058 C7.9220389,1.52005058 8.03389969,1.62369039 8.03389969,1.76187681 L8.03389969,1.76187681 Z M6.77761691,16.0382609 L6.77761691,16.927836 C4.28226071,16.927836 2.53551136,16.9191993 1.03829764,16.927836 C0.392946897,16.927836 0.0401551573,16.4873668 0.00573645105,15.787798 C0.00573645105,13.0931629 1.82992788,11.6767522 4.40272618,11.1671898 C5.08249563,11.1412798 5.96877732,15.615065 6.77761691,16.0382609 L6.77761691,16.0382609 Z" id="形状" fill="#009FDA"></path>
                </g>
            </g>
        </g>
    </g>
</svg>