<?xml version="1.0" encoding="UTF-8"?>
<svg width="16px" height="19px" viewBox="0 0 16 19" version="1.1" xmlns="http://www.w3.org/2000/svg" xmlns:xlink="http://www.w3.org/1999/xlink">
    <!-- Generator: Sketch 59.1 (86144) - https://sketch.com -->
    <title>yisheng</title>
    <desc>Created with Sketch.</desc>
    <g id="hcp-360标准版" stroke="none" stroke-width="1" fill="none" fill-rule="evenodd">
        <g id="我的" transform="translate(-55.000000, -626.000000)" fill-rule="nonzero">
            <g id="编组" transform="translate(0.000000, 617.000000)">
                <g id="yisheng" transform="translate(56.000000, 10.000000)">
                    <path d="M6.84645433,0 C5.04807692,0 4.07574847,0.449105853 3.34435096,0.76866194 C2.93993116,0.950031611 2.68179087,1.33868091 2.68179087,1.76187681 L2.68179087,4.36150876 C2.68179087,4.51696848 2.86248907,4.60333499 2.99155922,4.50833183 C3.51644449,4.11968253 4.74691324,3.42875045 6.87226836,3.42875045 C9.04064685,3.42875045 10.2797203,4.15422914 10.7873962,4.54287843 C10.899257,4.62924494 11.0541412,4.55151508 11.0541412,4.41332867 L11.0541412,1.6927836 C11.0541412,1.3214076 10.8218149,0.984578215 10.4690232,0.837755148 C9.6859976,0.518199061 8.70506447,0 6.84645433,0 Z" id="路径" stroke="#BBC0C3"></path>
                    <path d="M10.9493171,6.72157465 L10.7449051,7.0439871 L10.4020342,6.07412408 C10.3333343,5.87979562 10.214049,5.69165077 10.0924088,5.58109469 C9.3402799,4.87510114 8.36558829,4.59354643 6.89220516,4.60240179 C5.49058442,4.6100476 4.36089686,4.98663749 3.70718395,5.60315889 C3.56866622,5.72955202 3.46546102,5.87884163 3.41099908,6.03190173 L3.12116477,6.8464534 L2.8851671,6.57009966 C2.88621973,6.62887359 2.89308798,6.6972941 2.90703903,6.77701543 C2.98075698,7.18397078 3.11994992,7.36275244 3.32411198,7.45838211 L3.52414366,7.5520771 L3.58958064,7.76304967 C4.10836641,9.43564469 5.42801014,10.5462766 6.90668706,10.5462766 C8.38417392,10.5462766 9.70483228,9.43695319 10.2239925,7.77104632 L10.293147,7.54913992 L10.5073755,7.4589683 C10.7255382,7.36714075 10.8679615,7.19445418 10.9400876,6.78077487 C10.9436354,6.76029903 10.946706,6.74057673 10.9493171,6.72157465 Z" id="路径" stroke="#BBC0C3"></path>
                    <path d="M6.77761691,16.0382609 L6.77761691,16.927836 C4.28226071,16.927836 2.53551136,16.9191993 1.03829764,16.927836 C0.392946897,16.927836 0.0401551573,16.4873668 0.00573645105,15.787798 C0.00573645105,13.0931629 1.82992788,11.6767522 4.40272618,11.1671898 C5.08249563,11.1412798 5.96877732,15.615065 6.77761691,16.0382609 L6.77761691,16.0382609 Z" id="路径" stroke="#BBC0C3"></path>
                    <path d="M12.921356,16.9191993 C11.4241423,16.9105627 9.67739292,16.9191993 7.18203671,16.9191993 L7.18203671,16.0296243 C7.99948099,15.6064284 8.88576267,11.1326432 9.54832277,11.1498666 C12.1211211,11.6594789 13.9453125,13.0758896 13.9453125,15.7705247 C13.9194985,16.4787301 13.5753114,16.927836 12.921356,16.9191993 Z" id="路径" stroke="#BBC0C3"></path>
                    <path d="M8.03389969,1.76187681 C8.03389969,1.89142657 7.9220389,2.00370303 7.78436407,2.00370303 L7.1131993,2.00370303 L7.1131993,2.63417856 C7.1131993,2.76372832 7.00994318,2.87600479 6.88087303,2.88464144 C6.74319821,2.89327809 6.62273274,2.78100163 6.62273274,2.65145186 L6.62273274,2.00370303 L5.96017264,2.00370303 C5.82249781,2.00370303 5.71063702,1.90006322 5.71063702,1.76187681 C5.71063702,1.63232704 5.82249781,1.52005058 5.96017264,1.52005058 L6.62273274,1.52005058 L6.62273274,0.889575054 C6.62273274,0.760025289 6.72598885,0.647748826 6.855059,0.639112175 C6.99273383,0.630475524 7.1131993,0.742751987 7.1131993,0.872301752 L7.1131993,1.52005058 L7.78436407,1.52005058 C7.9220389,1.52005058 8.03389969,1.62369039 8.03389969,1.76187681 L8.03389969,1.76187681 Z" id="路径" fill="#BBC0C3"></path>
                </g>
            </g>
        </g>
    </g>
</svg>