<?xml version="1.0" encoding="UTF-8"?>
<svg width="12px" height="12px" viewBox="0 0 12 12" version="1.1" xmlns="http://www.w3.org/2000/svg" xmlns:xlink="http://www.w3.org/1999/xlink">
    <!-- Generator: Sketch 59.1 (86144) - https://sketch.com -->
    <title>mendian-</title>
    <desc>Created with Sketch.</desc>
    <g id="hcp360-墨克" stroke="none" stroke-width="1" fill="none" fill-rule="evenodd">
        <g id="我的积分" transform="translate(-296.000000, -66.000000)" fill="#FFFFFF" fill-rule="nonzero">
            <g id="mendian-" transform="translate(296.000000, 66.000000)">
                <path d="M7.17407268,3.21019921 C6.79555004,2.90255724 6.34655322,2.79089069 5.90876234,2.89514534 C5.75792239,2.92551116 4.81232716,3.14026704 4.46960393,3.80835577 C4.36712436,4.00811167 4.44598607,4.25311141 4.64574196,4.35559098 C4.84549785,4.458057 5.0904976,4.37922239 5.19297717,4.17945295 C5.32819383,3.91586243 5.84496837,3.73668918 6.07301691,3.69141822 C6.07968786,3.69013277 6.08632505,3.68867792 6.09292205,3.68705508 C6.3334096,3.62800365 6.53471021,3.7382339 6.66129544,3.84111997 C6.93041441,4.05984603 7.10316491,4.43695945 7.0911866,4.77954718 C7.08156601,5.05450625 6.85320581,5.25659276 6.48143113,5.56357076 C6.23309805,5.76862475 5.95163493,6.00102288 5.73239396,6.30865128 C5.46617472,6.68218749 5.34141875,7.09360983 5.35101224,7.56637357 C5.35551087,7.78802646 5.53658114,7.96463874 5.75727198,7.96463874 C5.76004976,7.96463874 5.76288173,7.96463874 5.76567305,7.96455744 C5.99013081,7.96000459 6.16840976,7.77435438 6.16385693,7.54988306 C6.1504965,6.89115745 6.54373459,6.56645589 6.99908641,6.19048068 C7.41237867,5.84923441 7.88079282,5.4624462 7.90370608,4.80797533 C7.92446487,4.21448001 7.63806949,3.58731263 7.17407268,3.21019921 L7.17407268,3.21019921 Z" id="路径"></path>
                <path d="M11.4798948,3.65815267 C11.1789601,2.9466629 10.7482424,2.30777467 10.1996929,1.759198 C9.65112974,1.21064844 9.01222797,0.779917174 8.30073819,0.478996067 C7.56392323,0.167343273 6.78144436,0.00932175583 5.97507664,0.00932175583 C5.16869537,0.00932175583 4.38623005,0.167343273 3.64940154,0.478996067 C2.93791176,0.77993072 2.29902353,1.21064842 1.75046041,1.759198 C1.20191084,2.30776112 0.771179582,2.9466629 0.470258475,3.65815267 C0.158605681,4.39496764 0.000584163136,5.1774465 0.000584163136,5.98381422 C0.000584163136,6.79018194 0.158605681,7.57266082 0.470258475,8.30947578 C0.771179568,9.02096556 1.20191083,9.65985379 1.75046041,10.2084305 C2.29900997,10.75698 2.93791176,11.1877113 3.64940154,11.4886324 C4.38623005,11.8002852 5.16869537,11.9583067 5.97507664,11.9583067 C6.78144437,11.9583067 7.56392324,11.8002852 8.30073819,11.4886324 C9.01222797,11.1876977 9.65111619,10.75698 10.1996929,10.2084305 C10.7482424,9.65986733 11.1789737,9.02096556 11.4798948,8.30947578 C11.7915476,7.57266082 11.9495691,6.79018195 11.9495691,5.98381422 C11.9495691,5.17744649 11.7915476,4.39496762 11.4798948,3.65815267 Z M5.97509019,11.1452994 C3.12903622,11.1452994 0.813605005,8.82986819 0.813605005,5.98381422 C0.813605005,3.13776025 3.12903622,0.822329052 5.97509019,0.822329052 C8.82114416,0.822329052 11.1365618,3.13776026 11.1365618,5.98381422 C11.1365618,8.82986818 8.82114416,11.1452994 5.97509019,11.1452994 Z" id="形状"></path>
                <path d="M5.32918299,8.73570841 C5.3291555,8.89547948 5.41437656,9.04312579 5.55273778,9.12301927 C5.69109901,9.20291274 5.861575,9.20291274 5.99993622,9.12301927 C6.13829744,9.04312579 6.2235185,8.89547948 6.22349102,8.73570841 C6.2235185,8.57593734 6.13829744,8.42829102 5.99993622,8.34839755 C5.861575,8.26850408 5.69109901,8.26850408 5.55273778,8.34839755 C5.41437656,8.42829102 5.3291555,8.57593734 5.32918299,8.73570841 L5.32918299,8.73570841 Z" id="路径"></path>
            </g>
        </g>
    </g>
</svg>