<?xml version="1.0" encoding="UTF-8"?>
<svg width="17px" height="19px" viewBox="0 0 17 19" version="1.1" xmlns="http://www.w3.org/2000/svg" xmlns:xlink="http://www.w3.org/1999/xlink">
    <!-- Generator: Sketch 59.1 (86144) - https://sketch.com -->
    <title>wode</title>
    <desc>Created with Sketch.</desc>
    <g id="hcp-360标准版" stroke="none" stroke-width="1" fill="none" fill-rule="evenodd">
        <g id="医生列表" transform="translate(-306.000000, -625.000000)" fill-rule="nonzero" stroke="#BBC0C3">
            <g id="编组" transform="translate(0.000000, 617.000000)">
                <g id="wode" transform="translate(306.000000, 8.000000)">
                    <path d="M13.3130344,0.5 L8.50000205,0.5 C5.84032479,0.5 3.68696968,2.63916204 3.68696968,5.27801339 C3.68696968,7.91686475 5.84032479,10.0560268 8.50000205,10.0560268 C11.1596793,10.0560268 13.3130344,7.91686475 13.3130344,5.27801339 L13.3130344,0.5 Z M3.71848637,12.1120536 C1.93835448,12.1120536 0.498159009,13.542756 0.500002046,15.3060268 L0.500002046,15.8340402 C0.500002046,17.3052605 1.70211326,18.5 3.18696968,18.5 L13.8130344,18.5 C15.2973335,18.5 16.500002,17.305812 16.500002,15.8340402 L16.500002,15.3060268 C16.500002,13.5429572 15.0596035,12.1120536 13.2815177,12.1120536 L3.71848637,12.1120536 Z" id="形状"></path>
                </g>
            </g>
        </g>
    </g>
</svg>