<?xml version="1.0" encoding="UTF-8"?>
<svg width="17px" height="19px" viewBox="0 0 17 19" version="1.1" xmlns="http://www.w3.org/2000/svg" xmlns:xlink="http://www.w3.org/1999/xlink">
    <!-- Generator: Sketch 59.1 (86144) - https://sketch.com -->
    <title>wode</title>
    <desc>Created with Sketch.</desc>
    <g id="hcp-360标准版" stroke="none" stroke-width="1" fill="none" fill-rule="evenodd">
        <g id="我的" transform="translate(-306.000000, -625.000000)">
            <g id="编组" transform="translate(0.000000, 617.000000)">
                <g id="wode" transform="translate(306.000000, 8.000000)">
                    <path d="M8.50000205,-4.08562073e-14 L13.8130344,-4.08562073e-14 L13.8130344,5.27801339 C13.8130344,8.19375 11.4350842,10.5560268 8.50000205,10.5560268 C5.56491988,10.5560268 3.18696968,8.19375 3.18696968,5.27801339 C3.18696968,2.36227679 5.56491988,-4.08562073e-14 8.50000205,-4.08562073e-14 Z M3.71848637,11.6120536 L13.2815177,11.6120536 C15.3350079,11.6120536 17.000002,13.2660714 17.000002,15.3060268 L17.000002,15.8340402 C17.000002,17.5834821 15.5719491,19 13.8130344,19 L3.18696968,19 C1.42592038,19 2.04627781e-06,17.5813616 2.04627781e-06,15.8340402 L2.04627781e-06,15.3060268 C-0.00213050872,13.2660714 1.66286156,11.6120536 3.71848637,11.6120536 L3.71848637,11.6120536 Z" id="形状" fill="#009FDA" fill-rule="nonzero"></path>
                    <circle id="椭圆形" fill="#FFFFFF" cx="6" cy="5" r="1"></circle>
                    <circle id="椭圆形备份" fill="#FFFFFF" cx="10" cy="5" r="1"></circle>
                </g>
            </g>
        </g>
    </g>
</svg>