<?xml version="1.0" encoding="UTF-8"?>
<svg width="17px" height="16px" viewBox="0 0 17 16" version="1.1" xmlns="http://www.w3.org/2000/svg" xmlns:xlink="http://www.w3.org/1999/xlink">
    <!-- Generator: Sketch 59.1 (86144) - https://sketch.com -->
    <title>Search Icon@2x</title>
    <desc>Created with Sketch.</desc>
    <g id="hcp-360标准版" stroke="none" stroke-width="1" fill="none" fill-rule="evenodd" fill-opacity="0.4">
        <g id="医生列表" transform="translate(-99.000000, -81.000000)" fill="#252A36">
            <g id="Navigation-Bar/Search---Grey-Active" transform="translate(0.000000, 64.000000)">
                <path d="M106.109171,17 C110.035458,17 113.218343,20.1828845 113.218343,24.1091714 C113.218343,25.5417298 112.79462,26.8753226 112.065667,27.9914578 C112.071453,27.9954462 112.076622,28.0000042 112.081755,28.0046261 L114.835865,30.4844375 C115.211182,30.8223746 115.269028,31.3809838 114.984399,31.788454 L114.906093,31.8869576 C114.538285,32.2954496 113.90847,32.327981 113.503915,31.9637178 L110.755618,29.4899246 C109.509536,30.5669116 107.885429,31.2183428 106.109171,31.2183428 C102.182884,31.2183428 99,28.0354584 99,24.1091714 C99,20.1828845 102.182884,17 106.109171,17 Z M106.109171,18.4218343 C102.968142,18.4218343 100.421834,20.9681419 100.421834,24.1091714 C100.421834,27.250201 102.968142,29.7965085 106.109171,29.7965085 C109.250201,29.7965085 111.796509,27.250201 111.796509,24.1091714 C111.796509,20.9681419 109.250201,18.4218343 106.109171,18.4218343 Z" id="Search-Icon"></path>
            </g>
        </g>
    </g>
</svg>