<?xml version="1.0" encoding="UTF-8"?>
<svg width="25px" height="22px" viewBox="0 0 25 22" version="1.1" xmlns="http://www.w3.org/2000/svg" xmlns:xlink="http://www.w3.org/1999/xlink">
    <!-- Generator: Sketch 59.1 (86144) - https://sketch.com -->
    <title>-huangguan</title>
    <desc>Created with Sketch.</desc>
    <g id="hcp360-墨克" stroke="none" stroke-width="1" fill="none" fill-rule="evenodd">
        <g id="我的积分-排行" transform="translate(-309.000000, -317.000000)" fill-rule="nonzero">
            <g id="-huangguan" transform="translate(320.000000, 327.500000) rotate(-310.000000) translate(-320.000000, -327.500000) translate(308.000000, 319.000000)">
                <path d="M1.53300061,6.56777966 C2.19088196,6.38987298 2.84876332,6.52330299 3.24349213,6.87911635 C3.68207969,7.27940639 3.68207969,7.81312645 3.41892715,8.30236983 L3.7697972,8.7916132 C4.4715373,9.81457664 6.13817006,10.2148667 7.76094408,9.7256233 C9.55915311,9.14742658 10.7871983,7.67969644 10.5240458,6.30091963 L10.2170345,4.65528281 C9.2521418,4.5218528 8.5504017,3.89917941 8.50654294,3.00964598 C8.50654294,2.25354258 9.12056553,1.40848583 10.0415994,0.963719122 C11.6205147,0.207615723 13.374865,0.652382428 13.725735,1.85325253 C13.90117,2.47592592 13.5941587,3.18755266 13.0239949,3.72127271 L13.6818762,5.2779562 C14.2081813,6.56777966 16.0502491,7.14597637 17.8484582,6.56777966 C19.4712322,6.07853628 20.6115598,4.83318949 20.6554186,3.54336603 L20.6554186,2.92069264 C20.1729723,2.69830929 19.865961,2.25354258 19.9975372,1.67534585 C20.1291135,1.1416258 20.6115598,0.696859081 21.2694412,0.474475729 C22.4097689,0.0741856942 23.5062378,0.56342907 23.5500965,1.40848583 C23.5939553,1.8977292 23.286944,2.34249592 22.8044977,2.69830929 L23.6816728,11.2823068 L5.48028872,16.930844 L1.4452831,9.28085658 C0.875119264,9.28085658 0.392672927,9.05847322 0.129520389,8.65818319 C-0.265208419,7.90207979 0.348814171,6.87911635 1.53300061,6.56777966 Z" id="路径" fill="#F9B95D"></path>
                <path d="M23.9009666,1.05267246 C24.1641191,1.85325253 23.5500965,2.78726263 22.4974864,3.09859932 C21.4448762,3.40993602 20.4799836,3.00964598 20.216831,2.16458923 C19.9536785,1.31953247 20.5677011,0.429999058 21.6203112,0.118662365 C22.6729214,-0.192674329 23.637814,0.207615706 23.9009666,1.05267246 Z" id="路径" fill="#F9C85D"></path>
                <path d="M1.53300061,6.56777966 C2.19088196,6.38987298 2.84876332,6.52330299 3.24349213,6.87911635 C3.68207969,7.27940639 3.68207969,7.81312645 3.41892715,8.30236983 L3.7697972,8.7916132 C4.4715373,9.81457664 6.13817006,10.2148667 7.76094408,9.7256233 C9.55915311,9.14742658 10.7871983,7.67969644 10.5240458,6.30091963 L10.2170345,4.65528281 C9.2521418,4.5218528 8.5504017,3.89917941 8.50654294,3.00964598 C8.50654294,2.25354258 9.12056553,1.40848583 10.0415994,0.963719122 C10.2170345,0.874765781 10.3924695,0.785812439 10.5679045,0.741335769 L14.6029101,14.1288137 L5.48028872,16.9753207 L1.4452831,9.28085658 C0.875119264,9.28085658 0.392672927,9.05847322 0.129520389,8.65818319 C-0.265208419,7.90207979 0.348814171,6.87911635 1.53300061,6.56777966 Z" id="路径" fill="#FFA303"></path>
                <path d="M3.68207969,7.1014997 C3.90137347,7.81312643 3.33120964,8.61370652 2.41017574,8.92504321 C1.48914184,9.19190324 0.568107953,8.83608987 0.348814171,8.12446314 C0.129520389,7.41283641 0.699684222,6.61225633 1.62071812,6.30091963 C2.54175202,6.03405961 3.46278591,6.38987298 3.68207969,7.1014997 L3.68207969,7.1014997 Z M13.6380175,1.58639251 C13.9888875,2.69830929 13.1117124,3.98813273 11.7082322,4.43289946 C10.304752,4.87766618 8.85741299,4.29946944 8.50654294,3.18755266 C8.15567289,2.07563588 9.03284802,0.785812439 10.4363282,0.341045717 C11.8398085,-0.103721005 13.2871474,0.429999058 13.6380175,1.58639251 Z" id="形状" fill="#F9C85D"></path>
                <path d="M20.2606898,1.36400916 C20.6992773,2.07563588 21.7518875,2.47592594 23.1553677,2.52040261 C22.9360739,2.78726263 22.5852039,3.00964598 22.1904751,3.14307599 C21.2255824,3.45441269 20.3045485,3.09859932 20.0852547,2.3869726 C19.9536785,2.03115923 20.041396,1.67534587 20.2606898,1.36400916 L20.2606898,1.36400916 Z M0.348814171,7.63521977 C0.831260491,8.3468465 1.88387066,8.70265988 3.24349213,8.74713653 C2.98033959,9.01399655 2.67332829,9.28085658 2.23474071,9.4142866 C1.26984805,9.7256233 0.348814171,9.36980993 0.129520389,8.65818319 C0.0418028759,8.30236983 0.129520389,7.94655646 0.348814171,7.63521977 Z M8.76969548,2.07563588 C8.76969548,2.2090659 8.76969548,2.34249591 8.81355424,2.47592594 C9.07670677,3.36545936 10.7871983,3.63231939 12.6292661,3.05412265 C12.9801361,2.96516931 13.2871474,2.8317393 13.5503,2.69830929 C13.4625825,3.58784272 12.6731248,4.43289946 11.5327972,4.78871282 C10.1293169,5.23347953 8.72583672,4.74423615 8.41882543,3.67679604 C8.28724916,3.14307599 8.41882543,2.56487926 8.76969548,2.07563588 L8.76969548,2.07563588 Z" id="形状" fill="#FFA303"></path>
                <path d="M22.2781926,1.09714913 C22.2781926,1.1416258 22.1466163,1.18610247 22.01504,1.18610247 C21.8834638,1.18610247 21.7080287,1.18610247 21.6203112,1.1416258 C21.488735,1.09714913 21.4448762,1.05267246 21.4448762,1.00819579 C21.4448762,0.963719122 21.5764525,0.919242451 21.7080287,0.919242451 C21.839605,0.919242451 22.01504,0.919242451 22.1027576,0.963719122 C22.2781926,1.00819579 22.3220513,1.05267246 22.2781926,1.09714913 Z M1.48914185,7.50178974 C1.35756558,7.59074308 1.26984807,7.67969644 1.1382718,7.67969644 C1.05055429,7.67969644 1.00669553,7.67969644 1.00669553,7.5907431 C1.00669553,7.50178976 1.09441305,7.41283641 1.22598931,7.32388306 C1.35756558,7.23492972 1.4452831,7.14597637 1.57685937,7.14597637 C1.66457688,7.14597637 1.70843564,7.14597637 1.70843564,7.23492972 C1.66457688,7.32388306 1.57685937,7.4128364 1.48914185,7.50178974 Z M11.5766559,1.40848583 C11.6205147,1.49743917 11.1380684,1.76429919 10.5240458,1.94220587 C9.91002316,2.12011256 9.38371809,2.2090659 9.38371809,2.07563588 C9.38371809,1.94220587 9.82230565,1.71982252 10.4363282,1.54191584 C11.0064921,1.36400916 11.5327972,1.31953249 11.5766559,1.40848583 Z" id="形状" fill="#F7EAD0"></path>
                <path d="M13.0678537,10.8820167 L14.4713339,10.43725 C14.7783452,10.3482967 14.997639,10.0814367 14.9537802,9.90352998 C14.9099214,9.68114663 14.5590514,9.59219329 14.2520401,9.7256233 L12.8485599,10.17039 C12.5415486,10.2593433 12.3222548,10.5262034 12.3661135,10.7041101 C12.453831,10.9264934 12.7608423,11.0154467 13.0678537,10.8820167 Z" id="路径" fill="#DA3329"></path>
                <path d="M12.5415486,10.2593433 L13.374865,9.99248332 L13.5941587,10.7485867 L12.7608424,11.0154467 C12.4099723,11.1044001 12.0591023,11.0599234 12.0152435,10.8375401 C11.927526,10.6151567 12.1906785,10.3482967 12.5415486,10.2593433 L12.5415486,10.2593433 Z" id="路径" fill="#C11B16"></path>
            </g>
        </g>
    </g>
</svg>