<?xml version="1.0" encoding="UTF-8"?>
<svg width="14px" height="10px" viewBox="0 0 14 10" version="1.1" xmlns="http://www.w3.org/2000/svg" xmlns:xlink="http://www.w3.org/1999/xlink">
    <!-- Generator: Sketch 59.1 (86144) - https://sketch.com -->
    <title>youjian</title>
    <desc>Created with Sketch.</desc>
    <g id="hcp360-墨克" stroke="none" stroke-width="1" fill="none" fill-rule="evenodd">
        <g id="我的" transform="translate(-116.000000, -149.000000)" fill="#FFFFFF" fill-rule="nonzero">
            <g id="youjian" transform="translate(116.000000, 149.000000)">
                <path d="M1.15680803,0.00299873737 C0.996808027,0.00299873737 0.925379453,0.202132931 1.04537947,0.308915049 L6.6882366,5.18048791 C6.79395088,5.26995399 6.95109375,5.26995399 7.05680803,5.17760192 L12.7310938,0.308915049 C12.8539509,0.205018939 12.7796652,0.00299873737 12.6196652,0.00299873737 L1.15680803,0.00299873737 Z M0.00823660156,1.22666396 L0.00823660156,8.91497565 C0.00823660156,9.01309975 0.122522324,9.06793381 0.196808027,9.00155573 L4.74537947,5.03041576 L0.196808027,1.13719788 C0.122522305,1.07370581 0.00823660156,1.12853987 0.00823660156,1.22666396 Z M8.1882366,5.72017045 L7.79680803,6.05494679 C7.5282366,6.28582702 7.19966518,6.40126714 6.87109375,6.40126714 C6.54252232,6.40126714 6.21680803,6.28582702 5.9482366,6.0578328 L5.6282366,5.78366252 L1.41680803,9.46331619 C1.23395088,9.62493235 1.34537945,9.92796265 1.5882366,9.92796265 L12.3025223,9.92796265 C12.5453795,9.92796265 12.656808,9.62204634 12.4739509,9.46331619 L8.1882366,5.72017045 L8.1882366,5.72017045 Z M13.7196652,9.02464376 C13.7939509,9.08813583 13.9082366,9.03618778 13.9082366,8.93806366 L13.8939509,1.08813583 C13.8939509,0.990011738 13.7796652,0.938063684 13.7053795,1.00155573 L9.0682366,4.9640377 L13.7196652,9.02464376 Z" id="形状"></path>
            </g>
        </g>
    </g>
</svg>