<?xml version="1.0" encoding="UTF-8"?>
<svg width="18px" height="18px" viewBox="0 0 18 18" version="1.1" xmlns="http://www.w3.org/2000/svg" xmlns:xlink="http://www.w3.org/1999/xlink">
    <!-- Generator: Sketch 59.1 (86144) - https://sketch.com -->
    <title>guanzhu</title>
    <desc>Created with Sketch.</desc>
    <g id="hcp360-墨克" stroke="none" stroke-width="1" fill="none" fill-rule="evenodd">
        <g id="我的" transform="translate(-15.000000, -290.000000)" fill-rule="nonzero" stroke="#252A36" stroke-width="1.2">
            <g id="guanzhu" transform="translate(16.000000, 291.000000)">
                <path d="M7.984375,13.6780656 C8.07353995,13.6747582 8.16166427,13.6987899 8.23770833,13.7471503 L12.100375,15.9025907 C12.3379099,16.0325189 12.6253356,16.0154989 12.8470417,15.8583765 C13.0557973,15.7092753 13.1631948,15.4490544 13.1230417,15.1896373 L12.368375,10.5333333 C12.3415572,10.3553936 12.3979848,10.1748416 12.520375,10.0469775 L15.7630417,6.69499137 C15.9368012,6.51551517 15.9986297,6.25015457 15.9230417,6.00829016 C15.8367937,5.75927712 15.6229842,5.58149186 15.3697083,5.54818653 L10.9430417,4.86148531 C10.768446,4.83655064 10.6176422,4.72233093 10.5417083,4.55751295 L8.61370833,0.415198624 C8.49596876,0.167772742 8.25191539,0.0120562559 7.98570833,0.0144656323 C7.71902199,0.0115228749 7.47432374,0.167320039 7.356375,0.415198624 L5.428375,4.5492228 C5.35244115,4.71404077 5.20163739,4.82826048 5.02704167,4.85319516 L0.600375,5.53851469 C0.34813497,5.58130247 0.13714917,5.76042769 0.0470416719,6.00829016 C-0.0338877672,6.24991437 0.0286349649,6.51825459 0.207041672,6.69499137 L3.45104167,10.0469775 C3.576375,10.1768566 3.62704167,10.3509499 3.60170833,10.5333333 L2.84704167,15.1896373 C2.80570834,15.4493955 2.91370834,15.7008636 3.124375,15.8583765 C3.34633381,16.0150574 3.63375051,16.0315451 3.87104167,15.901209 L7.724375,13.7471503 C7.8049082,13.702815 7.89452183,13.6791253 7.98570833,13.6780656 L7.984375,13.6780656 Z" id="路径"></path>
            </g>
        </g>
    </g>
</svg>