<?xml version="1.0" encoding="UTF-8"?>
<svg width="16px" height="15px" viewBox="0 0 16 15" version="1.1" xmlns="http://www.w3.org/2000/svg" xmlns:xlink="http://www.w3.org/1999/xlink">
    <!-- Generator: Sketch 59.1 (86144) - https://sketch.com -->
    <title>paihang</title>
    <desc>Created with Sketch.</desc>
    <g id="hcp360-墨克" stroke="none" stroke-width="1" fill="none" fill-rule="evenodd">
        <g id="我的" transform="translate(-16.000000, -395.000000)" fill="#252A36" fill-rule="nonzero">
            <g id="paihang" transform="translate(16.000000, 395.000000)">
                <path d="M15.5592246,5.95950444 C15.063594,5.31019169 14.2343472,5.04342921 13.4715241,5.28790681 L10.7763369,6.14293638 L9.81234403,4.17843935 C10.2056816,3.72094444 10.4220511,3.12872999 10.4198307,2.51571746 C10.4198307,1.13110207 9.33319965,0.00388313609 7.99844029,0.00388313609 C6.66368093,0.00388313609 5.57704992,1.13110207 5.57704992,2.51571746 C5.57704992,3.13997782 5.79380572,3.72281805 6.18453655,4.17843935 L5.22054367,6.14293638 L2.5253565,5.28790681 C1.75815508,5.04234469 0.939616745,5.30861688 0.437655966,5.95950444 C-0.0614527741,6.61039202 -0.127049916,7.49796598 0.277941176,8.2287352 L2.20877896,11.554179 C2.37134581,11.8352441 2.72214794,11.9240015 2.9930927,11.7553624 C3.26403745,11.5867234 3.34959893,11.222818 3.18703209,10.941753 L1.2618984,7.62814349 C1.010918,7.17252218 1.25049019,6.79974112 1.33034759,6.69619083 C1.410205,6.59264054 1.70681818,6.26719674 2.19166666,6.4210429 L5.34318182,7.42104289 C5.60842246,7.50388314 5.89362746,7.37962278 6.01911765,7.12518492 L7.39665775,4.3174926 C7.52214794,4.06009615 7.45369875,3.74944527 7.23123885,3.57488906 C6.90846638,3.32575067 6.71813656,2.93306637 6.71786987,2.51571746 C6.71786987,1.78494822 7.2911319,1.18731509 7.99844029,1.18731509 C8.70289662,1.18731509 9.2790107,1.78198965 9.2790107,2.51571746 C9.2790107,2.9358358 9.0907754,3.32045118 8.76564171,3.57488906 C8.54370099,3.74772186 8.473878,4.06117338 8.60022281,4.3174926 L9.97776292,7.12518492 C10.1032531,7.38258137 10.3884581,7.50684172 10.6536987,7.42104289 L13.8052139,6.4210429 C14.2929144,6.26719674 14.5866756,6.59264054 14.666533,6.69619083 C14.7463904,6.79974112 14.9859626,7.17252218 14.7321301,7.63110208 L11.3809715,13.7524038 L3.50646168,13.7524038 C3.1927362,13.7524038 2.9360517,14.018676 2.93605169,14.3441198 C2.93605167,14.6695636 3.19273618,14.9358358 3.50646168,14.9358358 L11.7146613,14.9358358 C11.9200089,14.9358358 12.1082442,14.8204512 12.210918,14.6370192 L15.7274955,8.21690089 C16.1244465,7.50018373 16.0576728,6.60439748 15.5592246,5.95950444 L15.5592246,5.95950444 Z" id="路径"></path>
            </g>
        </g>
    </g>
</svg>