<?xml version="1.0" encoding="UTF-8"?>
<svg width="16px" height="17px" viewBox="0 0 16 17" version="1.1" xmlns="http://www.w3.org/2000/svg" xmlns:xlink="http://www.w3.org/1999/xlink">
    <!-- Generator: Sketch 59.1 (86144) - https://sketch.com -->
    <title>jifen</title>
    <desc>Created with Sketch.</desc>
    <g id="hcp360-墨克" stroke="none" stroke-width="1" fill="none" fill-rule="evenodd">
        <g id="我的" transform="translate(-16.000000, -341.000000)" fill="#252A36" fill-rule="nonzero">
            <g id="jifen" transform="translate(16.000000, 341.000000)">
                <path d="M6.45875,6.1347919 C8.44824219,6.1347919 10.5174414,5.69981154 11.7600781,4.87043243 L11.7600781,6.38037852 L12.9114062,6.38037852 L12.9114062,3.07433754 C12.9114062,1.08681012 9.58777344,0.0137860928 6.46070312,0.0137860928 C3.33353516,0.0137860928 0.00806640625,1.08681012 0.00806640625,3.07433754 L0.00806640625,12.0972965 C0.00806640625,14.0848239 3.33158203,15.1578285 6.45875,15.1578285 L6.45875,14.0152526 C3.17410156,14.0152526 1.15734375,12.8977054 1.15734375,12.0972965 L1.15734375,9.38481474 C2.40007812,10.2122327 4.46734375,10.6492519 6.45875,10.6492519 L6.45875,9.50463724 C3.17410156,9.50463724 1.15734375,8.38718704 1.15734375,7.58679756 L1.15734375,4.87237413 C2.40007812,5.69981154 4.46927734,6.1347919 6.45875,6.1347919 Z M6.45875,1.15636193 C9.74341797,1.15636193 11.7600781,2.27394805 11.7600781,3.07433754 C11.7600781,3.87474644 9.74339844,4.99221605 6.45875,4.99221605 C3.17410156,4.99221605 1.15734375,3.87474644 1.15734375,3.07433754 C1.15734375,2.27396747 3.17605469,1.15636193 6.45875,1.15636193 Z M11.6161719,6.76120477 C8.75939453,6.76120477 7.26582031,7.85356817 7.26582031,8.93241731 L7.26582031,14.7305955 C7.26582031,15.8093476 8.76132813,16.9017304 11.6161523,16.9017304 C14.4516602,16.9017304 15.9432031,15.824823 15.966582,14.7537795 L15.9685352,14.7537795 L15.9685352,8.93239789 C15.966582,7.85358758 14.4730273,6.76120477 11.6161523,6.76120477 L11.6161719,6.76120477 Z M11.6161719,7.90385828 C13.7282031,7.90385828 14.8171875,8.62500685 14.8171875,8.93239789 C14.8171875,9.23978893 13.7282031,9.96095692 11.6161523,9.96095692 C9.50419922,9.96095692 8.41511719,9.23980834 8.41511719,8.93239789 C8.41511719,8.62498744 9.50417969,7.90385828 11.6161523,7.90385828 L11.6161719,7.90385828 Z M11.6161719,15.7591546 C9.50419922,15.7591546 8.41511719,15.038006 8.41511719,14.7305955 L8.41511719,13.3462388 C9.14441406,13.7407152 10.2160352,14.0036413 11.6161523,14.0036413 C13.0163477,14.0036413 14.0860547,13.7407152 14.8171875,13.3462388 L14.8171875,14.7305955 C14.8171875,15.0379672 13.7282031,15.7591546 11.6161523,15.7591546 L11.6161719,15.7591546 Z M11.6161719,12.8590461 C9.50419922,12.8590461 8.41511719,12.1378781 8.41511719,11.830487 L8.41511719,10.446208 C9.14441406,10.8406067 10.2160352,11.1035328 11.6161523,11.1035328 C13.0163477,11.1035328 14.0860547,10.8406067 14.8171875,10.446208 L14.8171875,11.830487 C14.8171875,12.1378781 13.7282031,12.8590461 11.6161523,12.8590461 L11.6161719,12.8590461 Z" id="形状"></path>
            </g>
        </g>
    </g>
</svg>