<?xml version="1.0" encoding="UTF-8"?>
<svg width="16px" height="16px" viewBox="0 0 16 16" version="1.1" xmlns="http://www.w3.org/2000/svg" xmlns:xlink="http://www.w3.org/1999/xlink">
    <!-- Generator: Sketch 59.1 (86144) - https://sketch.com -->
    <title>zhaomu</title>
    <desc>Created with Sketch.</desc>
    <g id="hcp360-墨克" stroke="none" stroke-width="1" fill="none" fill-rule="evenodd">
        <g id="我的" transform="translate(-16.000000, -240.000000)" fill="#252A36" fill-rule="nonzero">
            <g id="zhaomu" transform="translate(16.000000, 240.000000)">
                <path d="M15.1111111,0 L0.888888891,0 C0.4,0 0,0.150439703 0,0.639328593 C0,1.12821748 0.4,1.26172661 0.888888891,1.26172661 L1.77777778,1.26172661 L1.77777778,15.1111111 C1.77777778,15.6444444 2.22222222,16 2.66666667,16 C2.8,16 2.93333334,15.9555556 3.06666667,15.9111111 L7.6,13.6444444 C7.73333333,13.6 7.86666667,13.5555555 8,13.5555556 C8.13333333,13.5555556 8.26666667,13.6 8.4,13.6444444 L12.9333333,15.9111111 C13.0666667,15.9555555 13.2,16 13.3333333,16 C13.7777778,16 14.2222222,15.6444444 14.2222222,15.1111111 L14.2222222,1.26172661 L15.1111111,1.26172661 C15.6,1.26172661 16,1.12821748 16,0.639328593 C16,0.150439703 15.6,0 15.1111111,0 Z M9.23694974,12.7209845 C8.88139417,12.5432067 8.43694974,12.4543178 8.03694974,12.4543179 C7.63694974,12.4543179 7.1925053,12.5432068 6.83694974,12.7209845 L2.99590895,14.6174321 L2.98597516,1.25892557 L13.0879243,1.25892557 L13.0978581,14.6174321 L9.23694974,12.7209845 Z" id="形状"></path>
                <path d="M8,4.44444444 C7.51111111,4.44444444 7.11111111,4.84444444 7.11111111,5.33333333 L7.11111111,6.22222222 L6.22222222,6.22222222 C5.73333333,6.22222222 5.33333333,6.62222222 5.33333333,7.11111111 C5.33333333,7.6 5.73333333,8 6.22222222,8 L7.11111111,8 L7.11111111,8.88888889 C7.11111111,9.37777778 7.51111111,9.77777778 8,9.77777778 C8.48888889,9.77777778 8.88888889,9.37777778 8.88888889,8.88888889 L8.88888889,8 L9.77777778,8 C10.2666667,8 10.6666667,7.6 10.6666667,7.11111111 C10.6666667,6.62222222 10.2666667,6.22222222 9.77777778,6.22222222 L8.88888889,6.22222222 L8.88888889,5.33333333 C8.88888889,4.84444444 8.48888889,4.44444444 8,4.44444444 Z" id="路径"></path>
            </g>
        </g>
    </g>
</svg>