<?xml version="1.0" encoding="UTF-8"?>
<svg width="20px" height="20px" viewBox="0 0 20 20" version="1.1" xmlns="http://www.w3.org/2000/svg" xmlns:xlink="http://www.w3.org/1999/xlink">
    <!-- Generator: Sketch 59.1 (86144) - https://sketch.com -->
    <title>筛选</title>
    <desc>Created with Sketch.</desc>
    <g id="hcp-360标准版" stroke="none" stroke-width="1" fill="none" fill-rule="evenodd" fill-opacity="0.6">
        <g id="医生列表" transform="translate(-343.000000, -79.000000)" fill="#252A36" fill-rule="nonzero">
            <g id="筛选" transform="translate(343.000000, 79.000000)">
                <path d="M11.8888585,20 C11.4093268,20 10.9697561,19.83 10.6300878,19.51 C10.5901268,19.49 10.5601561,19.46 10.5501659,19.45 L8.97170732,17.88 C8.87180488,17.78 8.74193171,17.22 9.03164878,16.93 C9.15153171,16.79 9.34134634,16.72 9.57112195,16.72 C9.62107317,16.72 9.86083902,16.73 9.96074146,16.83 L11.4392976,18.21 C11.7689756,18.54 11.9687805,18.59 12.0586927,18.59 C12.1186341,18.59 12.1785756,18.57 12.2185366,18.52 C12.2984585,18.43 12.3384195,18.28 12.3284293,18.19 L12.3284293,8.29 C12.3284293,8.18 12.3284293,8.16 13.1676098,7.41 C13.257522,7.33 13.3274537,7.26 13.3474341,7.25 L18.2026927,2.4 C18.4324683,2.17 18.5223805,1.91 18.4424585,1.72 C18.3625366,1.52 18.0828098,1.4 17.7031805,1.4 L2.64788293,1.4 C2.1184,1.4 1.76874146,1.55 1.65884878,1.82 C1.57892683,2 1.63886829,2.22 1.72878049,2.31 C1.84866341,2.42 3.29724878,3.87 4.7358439,5.3 C7.62302439,8.18 7.62302439,8.18 7.62302439,8.29 L7.62302439,12.26 C7.62302439,12.81 7.36327805,13.14 6.92370732,13.14 C6.48413659,13.14 6.22439024,12.81 6.22439024,12.26 L6.22439024,8.84 L0.559921951,3.16 C0.380097561,2.98 0.000468292683,2.4 0.000468292683,1.83 C0.000468292683,0.6 0.689795122,0 2.1184,0 L18.1227707,0 C19.1118049,0 19.9509854,0.82 19.9809561,1.83 C19.9809561,2.52 19.4215024,3.16 19.4215024,3.17 L13.7570341,8.85 L13.7570341,18.17 C13.7270634,19.18 12.9078634,20 11.8888585,20 Z" id="Shape"></path>
            </g>
        </g>
    </g>
</svg>