<?xml version="1.0" encoding="UTF-8"?>
<svg width="12px" height="14px" viewBox="0 0 12 14" version="1.1" xmlns="http://www.w3.org/2000/svg" xmlns:xlink="http://www.w3.org/1999/xlink">
    <!-- Generator: Sketch 59.1 (86144) - https://sketch.com -->
    <title>验证码</title>
    <desc>Created with Sketch.</desc>
    <g id="hcp360-墨克" stroke="none" stroke-width="1" fill="none" fill-rule="evenodd" opacity="0.5">
        <g id="登录页读秒" transform="translate(-64.000000, -391.000000)">
            <g id="验证码" transform="translate(62.000000, 390.000000)">
                <g id="商户名" opacity="0.9" fill="#D8D8D8">
                    <rect id="Rectangle-8" opacity="0" x="0" y="0" width="16" height="16"></rect>
                </g>
                <g id="yanzhengma" transform="translate(2.000000, 1.000000)" fill="#C2D0DF" fill-rule="nonzero">
                    <path d="M11.9839337,2.88710743 C11.9422768,2.4686449 11.633637,2.12781569 11.2227485,2.04071488 C10.3896104,1.91006369 9.5678333,1.72071413 8.76120417,1.4745597 C7.9716165,1.15077195 7.23125972,0.717161464 6.56285577,0.188876188 C6.21255908,-0.0629587295 5.73918518,-0.0629587295 5.38699501,0.188876188 C4.75267398,0.775859822 3.99527574,1.21136382 3.17160515,1.46698572 C2.40852642,1.78319949 1.6000038,1.98201652 0.778226695,2.05964984 C0.35787067,2.12781567 0.0435503972,2.48000586 0.0246154529,2.90604238 C0.00568049523,3.3301854 0,5.02865096 0,6.89942461 C0,10.2831013 3.99338223,13.5569552 5.9891266,13.5569552 C7.98487097,13.5569552 11.3685476,11.2468905 11.9100874,6.95054899 C12.0445256,4.41326488 11.9517443,2.89846839 11.9517443,2.89846839 L11.9839337,2.88710743 Z M9.81020074,5.50013135 L5.64072341,9.43481522 C5.45137385,9.61280381 5.16734951,9.64120625 4.94770403,9.50298107 L4.83788128,9.41019978 L2.53539063,7.01492784 C2.32142562,6.78202788 2.33468008,6.41847673 2.56947354,6.20261823 C2.8023735,5.98865323 3.16592466,6.00190769 3.38178316,6.23670115 L5.27717226,8.22487154 L9.03197405,4.67267378 C9.26487401,4.45870878 9.62842516,4.47385674 9.84428366,4.7067567 C10.0582487,4.93965666 10.0431007,5.30320781 9.81020074,5.51906631" id="形状"></path>
                </g>
            </g>
        </g>
    </g>
</svg>