<?xml version="1.0" encoding="UTF-8"?>
<svg width="11px" height="11px" viewBox="0 0 11 11" version="1.1" xmlns="http://www.w3.org/2000/svg" xmlns:xlink="http://www.w3.org/1999/xlink">
    <!-- Generator: Sketch 59.1 (86144) - https://sketch.com -->
    <title>反馈</title>
    <desc>Created with Sketch.</desc>
    <g id="hcp360-墨克" stroke="none" stroke-width="1" fill="none" fill-rule="evenodd">
        <g id="拜访互动" transform="translate(-312.000000, -182.000000)" fill="#666972" fill-rule="nonzero">
            <g id="head" transform="translate(10.000000, 104.000000)">
                <g id="反馈" transform="translate(302.000000, 78.000000)">
                    <path d="M10.6661003,10.2396388 C10.6661003,10.4824482 10.4696455,10.678903 10.2268361,10.678903 L5.8337525,10.678903 C5.59115357,10.678903 5.39448828,10.4822377 5.39448828,10.2396388 C5.39448828,9.99703986 5.59115357,9.80037457 5.8337525,9.80037457 L10.2268361,9.80037457 C10.4696455,9.80037457 10.6661003,9.9972709 10.6661003,10.2396388 L10.6661003,10.2396388 Z M6.87871573,0.986394657 L9.99991972,4.1084816 L9.37567893,4.73228094 L6.25447491,1.61019397 L6.87871573,0.986394657 Z M1.60931105,6.25535786 L4.73051504,9.37744481 L4.10671573,10.0012441 L0.985511709,6.8791572 L1.60931105,6.25535786 Z" id="Shape"></path>
                    <path d="M1.60931105,7.50428094 L7.52193981,1.5912107 C8.03919973,1.0739508 8.87784375,1.07395081 9.39510366,1.59121072 C9.91236358,2.10847063 9.91236358,2.94711465 9.39510368,3.46437457 L3.48247491,9.37744481 L4.10671573,10.0016856 L10.019786,4.08861538 C10.8817929,3.22659194 10.8817929,1.82899334 10.019786,0.966969894 C9.15776252,0.104962985 7.76016391,0.104962985 6.89814047,0.966969894 L0.984628761,6.88004013 L1.60931105,7.50428094 Z" id="Shape"></path>
                    <path d="M3.48953846,9.37965218 C3.48644816,9.37965218 1.55191972,9.76417391 1.5523612,9.76240803 C1.43890301,9.79198662 1.3475184,9.80258194 1.27026088,9.72532442 C1.19653513,9.6511572 1.22699667,9.452495 1.22699665,9.45249498 L1.61681605,7.50604682 L0.992575256,6.88180603 L0.343612031,10.1257391 C0.343612031,10.1257391 0.291959852,10.4572843 0.415571902,10.5804549 C0.54315718,10.7080401 0.696789295,10.6921472 0.884856196,10.6427023 C0.883973248,10.6449097 4.11377927,10.0043345 4.11377927,10.0043344 L3.48953846,9.37965218 L3.48953846,9.37965218 Z" id="Shape"></path>
                    <path d="M3.48953846,9.37965218 C3.48644816,9.37965218 1.55191972,9.76417391 1.5523612,9.76240803 C1.43890301,9.79198662 1.3475184,9.80258194 1.27026088,9.72532442 C1.19653513,9.6511572 1.22699667,9.452495 1.22699665,9.45249498 L1.61681605,7.50604682 L0.992575256,6.88180603 L0.343612031,10.1257391 C0.343612031,10.1257391 0.291959852,10.4572843 0.415571902,10.5804549 C0.54315718,10.7080401 0.696789295,10.6921472 0.884856196,10.6427023 C0.883973248,10.6449097 4.11377927,10.0043345 4.11377927,10.0043344 L3.48953846,9.37965218 L3.48953846,9.37965218 Z" id="Shape"></path>
                </g>
            </g>
        </g>
    </g>
</svg>